<?xml version="1.0" standalone="no"?>
<svg viewBox="0 0 200 200" xmlns="http://www.w3.org/2000/svg">
  <path fill="#E1ECFF" d="M44.9,-76.7C58.7,-69.9,70.7,-58.8,78.3,-45.3C85.9,-31.8,89.2,-15.9,88.9,-0.2C88.6,15.6,84.7,31.1,76.7,43.9C68.6,56.6,56.4,66.5,42.9,75C29.4,83.5,14.7,90.6,-0.7,91.9C-16.2,93.2,-32.4,88.7,-46.8,80.7C-61.1,72.7,-73.6,61.2,-81.6,47.2C-89.7,33.1,-93.3,16.6,-92.2,0.6C-91.1,-15.3,-85.3,-30.6,-77.4,-44.8C-69.4,-59,-59.3,-72.2,-46.1,-79.4C-32.8,-86.5,-16.4,-87.8,-0.4,-87C15.6,-86.3,31.1,-83.6,44.9,-76.7Z" transform="translate(100 100)" />
</svg>
